<svg width="15" height="15" class="bars-icon base-icons required-svg-icon tg-icon-bars" viewBox="0 0 1024 1024" version="1.1" xmlns="http://www.w3.org/2000/svg"><path d="M950.8571428571428 768v73.14285714285714q0 14.857142857142856-10.857142857142856 25.71428571428571t-25.71428571428571 10.857142857142856h-804.5714285714286q-14.857142857142856 0-25.71428571428571-10.857142857142856t-10.857142857142856-25.71428571428571v-73.14285714285714q0-14.857142857142856 10.857142857142856-25.71428571428571t25.71428571428571-10.857142857142856h804.5714285714286q14.857142857142856 0 25.71428571428571 10.857142857142856t10.857142857142856 25.71428571428571z m0-292.57142857142856v73.14285714285714q0 14.857142857142856-10.857142857142856 25.71428571428571t-25.71428571428571 10.857142857142856h-804.5714285714286q-14.857142857142856 0-25.71428571428571-10.857142857142856t-10.857142857142856-25.71428571428571v-73.14285714285714q0-14.857142857142856 10.857142857142856-25.71428571428571t25.71428571428571-10.857142857142856h804.5714285714286q14.857142857142856 0 25.71428571428571 10.857142857142856t10.857142857142856 25.71428571428571z m0-292.57142857142856v73.14285714285714q0 14.857142857142856-10.857142857142856 25.71428571428571t-25.71428571428571 10.857142857142856h-804.5714285714286q-14.857142857142856 0-25.71428571428571-10.857142857142856t-10.857142857142856-25.71428571428571v-73.14285714285714q0-14.857142857142856 10.857142857142856-25.71428571428571t25.71428571428571-10.857142857142856h804.5714285714286q14.857142857142856 0 25.71428571428571 10.857142857142856t10.857142857142856 25.71428571428571z"></path></svg>