<?xml version="1.0" standalone="no"?><!DOCTYPE svg PUBLIC "-//W3C//DTD SVG 1.1//EN" "http://www.w3.org/Graphics/SVG/1.1/DTD/svg11.dtd"><svg class="icon" width="200px" height="200.00px" viewBox="0 0 1024 1024" version="1.1" xmlns="http://www.w3.org/2000/svg"><path fill="#333333" d="M88.656247 0h19.982693c33.409978 2.102252 67.091214 23.147373 77.2634 56.173068 19.101104-0.497307 38.179603 0.067815 57.212892 1.491921 15.846004 1.401501 32.528389 2.689978 46.588609 10.827726 10.918146 6.28415 16.659779 20.751258 10.98596 32.460574-14.060221 28.798587-38.902958 50.069757-57.258101 75.907108-2.396115 3.300309-4.023664 7.03011-5.425166 10.827727 18.988079-4.159294 35.150552-16.795408 54.522914-19.892274 12.794349-2.667373 27.306667 1.107638 35.896512 11.302428 9.064547 10.443444 11.483267 24.707108 12.681325 38.021369 0.768565 14.828786 0.406887 29.747991-1.514526 44.486357 98.986667 0.067815 197.973333 0 296.96 0.04521 7.86649-17.450949 16.004238-34.788874 23.441237-52.398057 3.20989-5.877263-1.58234-11.370243-4.927859-15.8234-8.883709-11.347638-17.631788-24.707108-16.072053-39.829757 1.378896-16.343311 9.561854-34.924503 26.538101-39.965386 17.044062-4.70181 34.879294 0.293863 51.132186 5.764238 14.467108 5.086093 28.34649 11.664106 41.886799 18.829846 19.394967-10.918146 38.767329-21.813687 58.207505-32.664018 6.939691-3.368124 9.335806-11.370243 14.693157-16.47894 33.771656-36.95894 96.635762-39.33245 134.837969-7.9117 12.432671 10.375629 21.949316 24.684503 24.774923 40.779161 4.520971 22.01713-4.566181 45.390552-20.954702 60.332362-35.986932 33.703841-98.037263 33.703841-134.205033 0.271258-9.132362-8.386402-15.416512-19.281943-19.847064-30.742605-18.988079 11.325033-38.563885 21.610243-57.642384 32.777042-24.526269-14.24106-50.182781-29.408918-78.890949-32.460574-1.130243 8.499426 5.990287 14.218455 10.217395 20.638234 9.44883 12.003179 14.8966 27.916998 10.420839 43.062252-5.086093 15.8234-12.703929 30.67479-19.485387 45.820044 36.574658 0 73.149316-0.067815 109.723974 0.022605 28.843797 0.497307 57.303311 12.862163 76.901722 34.110728 18.445563 19.327152 28.753377 45.842649 28.979426 72.493775 0.565121 42.180662 0.113024 84.361325 0.226048 126.541987 14.98702-4.272318 29.996645-8.431611 44.983665-12.65872 16.252892-4.385342 34.947108-3.322914 48.894304 6.849272 14.919205 10.420839 22.084945 29.069845 22.017131 46.837263 0.226049 30.833024 0.158234 61.688653 0.022604 92.521677 0.022605 18.716821-7.007506 37.433642-19.937483 51.019161-13.020397 14.037616-31.714614 22.717881-50.883532 23.192583-15.009625 0.519912-30.019249 0.090419-45.028874 0.226049-0.090419 64.830728-0.022605 129.661457-0.04521 194.492185 0.04521 18.355143 0.248653 37.275408-6.058101 54.771568-13.020397 39.287241-50.725298 69.080442-92.114791 71.928653H230.886004c-30.471347-2.735188-59.360353-19.327152-76.969536-44.328124-12.975188-17.880442-19.937483-39.874967-20.073113-61.937306 0-49.007329 0.067815-98.014658-0.022604-147.021987-17.202296-1.808389-34.427196-3.413333-51.561678-5.832053-37.953554-5.854658-69.125651-41.321678-69.283885-79.840353 0.04521-32.483179 0-64.943753 0.022604-97.404327 0.090419-17.224901 7.979514-34.743664 22.401413-44.599382 14.263664-10.081766 33.274349-10.872936 49.61766-5.967682 16.298102 4.588786 32.618808 9.064547 48.91691 13.721148-0.158234-52.511082-0.04521-104.999558-0.067815-157.51064 0.113024-17.40574-1.175453-35.127947 3.639382-52.08159 10.19479-39.535894 44.87064-71.363532 85.265519-77.783311 25.317439-3.684592 51.064371-0.83638 76.562649-1.853598 1.853598-17.880442 3.368124-36.16777-0.316468-53.912583-20.027903 5.086093-37.252804 18.671611-58.207506 20.570419-14.19585 1.921413-29.476733-4.973068-36.303399-17.812627-8.680265-14.308874-7.369183-32.754437 0.452097-47.15373 12.61351-24.232406 34.042914-42.067638 49.730684-64.129978-23.463841-2.463929-47.040706-3.20989-70.617571-2.803002-7.256159 17.428344-21.158146 31.669404-37.93095 40.12362-31.398146 16.049448-71.137483 14.828786-101.134128-3.842826C26.651126 121.34287 12.161413 102.264371 10.172185 80.38287v-14.128036C14.331479 28.007417 52.443267 2.41872 88.656247 0M79.343046 42.429316c-12.500486 3.888035-24.955762 12.455276-28.821192 25.566092-2.825607 11.144194 3.95585 21.994525 12.681325 28.3917 18.716821 13.540309 45.322737 14.489713 65.576689 3.707197 9.539249-5.063488 18.242119-14.037616 19.033289-25.31744 0.519912-10.059161-5.899868-19.191523-13.856777-24.729713-15.665166-11.008565-36.506843-12.952583-54.613334-7.617836m808.96 58.704812c-13.31426 3.029051-26.71894 10.488653-32.550993 23.373422-4.204503 9.290596-0.79117 20.457395 6.351965 27.284061 16.750199 16.885828 44.147285 19.236733 65.531479 10.827727 10.805121-4.498366 21.22596-12.907373 23.893333-24.842738 2.170066-10.511258-4.227108-20.638234-12.297042-26.809359-14.331479-10.940751-33.613422-13.156026-50.928742-9.833113M227.472671 303.379779c-30.064459 5.764238-53.686534 34.268962-53.370066 64.966358 0.04521 183.845298-0.067815 367.713201 0.067814 551.581104 0.497307 34.743664 31.895453 65.034172 66.639117 64.378631 180.861457 0.180839 361.745519 0 542.606976 0.090419 11.844945 0.271258 23.938543-1.356291 34.608035-6.758852 23.59947-10.850331 38.699514-36.371214 38.202208-62.18596 0.090419-180.816247 0.022605-361.632494 0.04521-542.448742 0.180839-15.529536-3.86543-31.398146-13.427285-43.853421-12.5683-17.247506-33.703841-27.55532-54.997616-27.261457-182.421192 0.04521-364.842384-0.022605-547.240971 0.022605-4.407947 0.090419-8.815894 0.519912-13.133422 1.469315m722.112141 218.340309c-15.371302 4.475762-30.923444 8.341192-46.181721 13.156027 0.542517 42.655364 0.090419 85.310728 0.248653 127.966093 12.61351-0.293863 25.27223 0.587726 37.863135-0.452098 16.139868-1.107638 30.313113-15.348698 30.403532-31.669404 0.04521-31.646799-0.04521-63.293598 0.022604-94.940397 0.180839-5.49298-0.881589-12.455276-6.555408-14.919205-5.131302-2.441325-10.692097-0.384283-15.800795 0.858984M58.750022 575.723091c-4.769625 2.870817-5.44777 9.041943-5.719029 14.082825-0.158234 24.910552 0.022605 49.821104 0.248654 74.754261 0.361678 10.398234-1.672759 21.158146 1.830993 31.239911 5.040883 14.873996 18.355143 27.148433 34.110729 29.476733 10.759912 1.62755 21.632848 2.350905 32.437969 3.729802-0.067815-46.611214-0.067815-93.222428 0-139.811038-15.73298-4.566181-31.55638-8.838499-47.311965-13.336865-5.040883-1.243267-10.692097-2.441325-15.597351-0.135629zM352.454923 442.196203c11.302428-3.707196 24.164592-3.797616 35.240971 0.79117 10.895541 4.724415 16.546755 16.298102 18.445563 27.442296 3.345519 21.180751 2.554349 42.723179 2.147461 64.062163-1.107638 14.354084-1.672759 30.561766-12.116203 41.70596-9.720088 9.720088-24.910552 10.443444-37.75011 8.273378-11.618896-1.559735-20.999912-10.782517-24.255011-21.836291-5.515585-18.219514-4.204503-37.524062-4.475762-56.331303 0.248653-15.235673-0.04521-30.946049 5.063488-45.526181 2.961236-8.318587 9.313201-15.529536 17.699603-18.581192zM656.829316 440.817307c12.342252-2.350905 26.515497-2.102252 36.91373 5.809448 9.019338 7.233554 12.025784 19.191523 13.382075 30.132274 1.717969 17.383135 1.356291 34.856689 1.152848 52.285033-0.587726 14.98702-0.565121 31.398146-9.584459 44.169889-8.883709 12.138808-25.769536 13.743753-39.535894 11.370243-11.053775-1.265872-20.502605-9.44883-24.187197-19.801854-6.32936-17.27011-4.6566-35.964327-4.905253-53.980397 0.158234-17.563974-1.220662-35.964327 5.764238-52.533687 3.639382-8.838499 11.664106-15.461722 20.999912-17.450949zM264.454216 648.036026c6.691038-2.079647 14.308874 0.361678 19.191524 5.199117 5.764238 5.221722 5.990287 13.562914 8.680264 20.434791 17.337925 50.770508 50.499249 97.155673 96.432318 125.683002 41.909404 25.995585 92.566887 34.992318 141.280353 31.872848 38.360442-1.604945 76.720883-12.251832 109.317087-32.799647 49.165563-31.126887 83.434525-82.620751 99.077086-138.115673 3.481148-10.330419 16.682384-16.139868 26.538101-11.279824 9.177572 3.95585 14.873996 15.235673 11.325033 24.820133-16.230287 57.212892-50.250596 109.814393-97.517351 146.163002-36.845916 28.278675-81.87479 44.938455-127.875673 49.979338-56.715585 6.035497-116.143753-0.678146-167.185519-27.329272-63.655276-32.573598-109.769183-93.78755-131.243797-161.217837-1.58234-6.103311-4.475762-12.523091-2.396114-18.85245 1.717969-7.03011 7.572627-12.455276 14.376688-14.557528z" /></svg>