<?xml version="1.0" standalone="no"?><!DOCTYPE svg PUBLIC "-//W3C//DTD SVG 1.1//EN" "http://www.w3.org/Graphics/SVG/1.1/DTD/svg11.dtd"><svg t="1630638766369" class="icon" viewBox="0 0 1024 1024" version="1.1" xmlns="http://www.w3.org/2000/svg" p-id="2345" xmlns:xlink="http://www.w3.org/1999/xlink" width="200" height="200"><defs><style type="text/css"></style></defs><path d="M512 960c-243.2 0-448-198.4-448-448s198.4-448 448-448 448 198.4 448 448-204.8 448-448 448zM512 96C281.6 96 96 281.6 96 512s185.6 416 416 416 416-185.6 416-416S742.4 96 512 96zM652.8 384c0-25.6 12.8-44.8 25.6-44.8s25.6 19.2 25.6 44.8-12.8 44.8-25.6 44.8-25.6-19.2-25.6-44.8z m25.6 64c-19.2 0-38.4-25.6-38.4-64s19.2-64 38.4-64 38.4 25.6 38.4 64-12.8 64-38.4 64z m0-96c0 6.4-6.4 12.8-6.4 32s6.4 25.6 6.4 32c0-6.4 6.4-12.8 6.4-32s0-25.6-6.4-32zM320 384c0-25.6 12.8-44.8 25.6-44.8s25.6 19.2 25.6 44.8-12.8 44.8-25.6 44.8S320 409.6 320 384z m25.6 64c-25.6 0-38.4-25.6-38.4-64s12.8-64 38.4-64c19.2 0 38.4 25.6 38.4 64s-19.2 64-38.4 64z m0-96c0 6.4-6.4 12.8-6.4 32s6.4 25.6 6.4 32c0-6.4 6.4-12.8 6.4-32s-6.4-25.6-6.4-32z m435.2 217.6c0 128-121.6 230.4-268.8 230.4s-268.8-102.4-268.8-230.4h537.6zM512 812.8c-160 0-288-108.8-288-249.6 0-6.4 6.4-12.8 12.8-12.8s19.2 6.4 19.2 19.2c0 121.6 115.2 217.6 256 217.6s256-96 256-217.6c0-6.4 6.4-12.8 12.8-12.8s12.8 6.4 12.8 12.8c6.4 134.4-121.6 243.2-281.6 243.2zM243.2 550.4h544v32H243.2v-32z" p-id="2346"></path></svg>