<?xml version="1.0" standalone="no"?><!DOCTYPE svg PUBLIC "-//W3C//DTD SVG 1.1//EN" "http://www.w3.org/Graphics/SVG/1.1/DTD/svg11.dtd"><svg class="icon" width="200px" height="200.00px" viewBox="0 0 1024 1024" version="1.1" xmlns="http://www.w3.org/2000/svg"><path fill="#333333" d="M898.045845 134.257773 128.003837 134.257773c-27.64871 0-50.083675 22.407336-50.083675 50.053999l0 468.757127c0 27.64871 22.435988 50.081629 50.083675 50.081629l287.971667 0L415.975505 810.001091 246.948857 810.001091l0 79.741136 532.151969 0L779.100826 810.001091 610.074178 810.001091 610.074178 703.150528l287.971667 0c27.647687 0 50.080605-22.433942 50.080605-50.081629L948.12645 184.311773C948.12645 156.665109 925.692508 134.257773 898.045845 134.257773zM453.536982 810.001091 453.536982 706.126302l118.973672 0L572.510654 810.001091 453.536982 810.001091zM910.565996 653.068899c0 6.91141-5.607718 12.520151-12.520151 12.520151L128.003837 665.589051c-6.91141 0-12.521175-5.608741-12.521175-12.520151L115.482663 184.311773c0-6.883781 5.609765-12.491499 12.521175-12.491499l770.042008 0c6.912433 0 12.520151 5.607718 12.520151 12.491499L910.565996 653.068899z" /></svg>