<?xml version="1.0" standalone="no"?><!DOCTYPE svg PUBLIC "-//W3C//DTD SVG 1.1//EN" "http://www.w3.org/Graphics/SVG/1.1/DTD/svg11.dtd"><svg class="icon" width="200px" height="200.00px" viewBox="0 0 1024 1024" version="1.1" xmlns="http://www.w3.org/2000/svg"><path fill="#333333" d="M539.689712 4.646939l373.304084 128.706123a85.334695 85.334695 0 0 1 57.453062 80.687756v336.26939a412.732656 412.732656 0 0 1-246.56939 380.204085l-185.736736 85.475511a84.489797 84.489797 0 0 1-71.816327 0l-172.077552-81.110205-4.365306-1.971428A414.704085 414.704085 0 0 1 53.310116 557.210209V214.040818a85.334695 85.334695 0 0 1 57.453062-80.687756L484.067262 4.646939a85.616327 85.616327 0 0 1 55.62245 0z m-28.163266 80.687756L138.644811 214.040818v343.169391a329.228574 329.228574 0 0 0 191.228573 300.22041l172.640817 80.969388 186.581634-85.757143a327.538778 327.538778 0 0 0 196.016329-305.008166V214.040818z m0 128.002041a181.37143 181.37143 0 0 1 42.244899 357.532656v97.444899h35.62653a14.081633 14.081633 0 0 1 14.081633 14.081633v56.326531a14.081633 14.081633 0 0 1-14.081633 14.081633h-34.922449v42.244898a14.081633 14.081633 0 0 1-14.081633 14.081633h-56.326531a14.081633 14.081633 0 0 1-14.081632-14.081633v-225.306124a181.37143 181.37143 0 0 1 42.244898-357.532656z m0 85.334695A96.036735 96.036735 0 1 0 607.844814 394.285717a95.895919 95.895919 0 0 0-95.895919-95.895919z" /></svg>