<?xml version="1.0" standalone="no"?><!DOCTYPE svg PUBLIC "-//W3C//DTD SVG 1.1//EN" "http://www.w3.org/Graphics/SVG/1.1/DTD/svg11.dtd"><svg class="icon" width="200px" height="200.00px" viewBox="0 0 1024 1024" version="1.1" xmlns="http://www.w3.org/2000/svg"><path fill="#333333" d="M856.347 87.133h-687.4c-65.762 0-119.097 53.335-119.097 119.097v563.124c-1.554 6.214-1.554 12.169 0 18.124v30.55c0 65.763 53.335 119.098 119.097 119.098h687.4c65.763 0 119.098-53.335 119.098-119.097V206.23c0-65.762-53.335-119.097-119.098-119.097z m-687.4 72.494h687.4c25.632 0 46.604 20.971 46.604 46.603v452.312c-26.927-36.506-59.55-76.378-93.466-107.965-20.195-18.9-45.309-26.667-72.753-22.784-43.238 6.214-90.618 42.202-144.73 109.777-12.945 16.052-24.596 32.105-34.175 45.827-47.64-65.763-141.364-187.19-220.849-243.114-23.56-16.57-49.969-20.454-76.895-11.651-29.257 9.58-57.737 34.434-86.734 75.86-16.83 23.82-33.917 53.335-51.264 88.028V206.23c0.259-25.89 20.972-46.603 46.862-46.603zM632 374.8a63 63 0 1 0 126 0 63 63 0 1 0-126 0z" /></svg>