<?xml version="1.0" standalone="no"?><!DOCTYPE svg PUBLIC "-//W3C//DTD SVG 1.1//EN" "http://www.w3.org/Graphics/SVG/1.1/DTD/svg11.dtd"><svg class="icon" width="200px" height="186.52px" viewBox="0 0 1098 1024" version="1.1" xmlns="http://www.w3.org/2000/svg"><path fill="#333333" d="M219.424 914.272l0-73.152q0-14.848-10.848-25.728t-25.728-10.848l-73.152 0q-14.848 0-25.728 10.848t-10.848 25.728l0 73.152q0 14.848 10.848 25.728t25.728 10.848l73.152 0q14.848 0 25.728-10.848t10.848-25.728zM219.424 694.848l0-73.152q0-14.848-10.848-25.728t-25.728-10.848l-73.152 0q-14.848 0-25.728 10.848t-10.848 25.728l0 73.152q0 14.848 10.848 25.728t25.728 10.848l73.152 0q14.848 0 25.728-10.848t10.848-25.728zM219.424 475.424l0-73.152q0-14.848-10.848-25.728t-25.728-10.848l-73.152 0q-14.848 0-25.728 10.848t-10.848 25.728l0 73.152q0 14.848 10.848 25.728t25.728 10.848l73.152 0q14.848 0 25.728-10.848t10.848-25.728zM804.576 914.272l0-292.576q0-14.848-10.848-25.728t-25.728-10.848l-438.848 0q-14.848 0-25.728 10.848t-10.848 25.728l0 292.576q0 14.848 10.848 25.728t25.728 10.848l438.848 0q14.848 0 25.728-10.848t10.848-25.728zM219.424 256l0-73.152q0-14.848-10.848-25.728t-25.728-10.848l-73.152 0q-14.848 0-25.728 10.848t-10.848 25.728l0 73.152q0 14.848 10.848 25.728t25.728 10.848l73.152 0q14.848 0 25.728-10.848t10.848-25.728zM1024 914.272l0-73.152q0-14.848-10.848-25.728t-25.728-10.848l-73.152 0q-14.848 0-25.728 10.848t-10.848 25.728l0 73.152q0 14.848 10.848 25.728t25.728 10.848l73.152 0q14.848 0 25.728-10.848t10.848-25.728zM804.576 475.424l0-292.576q0-14.848-10.848-25.728t-25.728-10.848l-438.848 0q-14.848 0-25.728 10.848t-10.848 25.728l0 292.576q0 14.848 10.848 25.728t25.728 10.848l438.848 0q14.848 0 25.728-10.848t10.848-25.728zM1024 694.848l0-73.152q0-14.848-10.848-25.728t-25.728-10.848l-73.152 0q-14.848 0-25.728 10.848t-10.848 25.728l0 73.152q0 14.848 10.848 25.728t25.728 10.848l73.152 0q14.848 0 25.728-10.848t10.848-25.728zM1024 475.424l0-73.152q0-14.848-10.848-25.728t-25.728-10.848l-73.152 0q-14.848 0-25.728 10.848t-10.848 25.728l0 73.152q0 14.848 10.848 25.728t25.728 10.848l73.152 0q14.848 0 25.728-10.848t10.848-25.728zM1024 256l0-73.152q0-14.848-10.848-25.728t-25.728-10.848l-73.152 0q-14.848 0-25.728 10.848t-10.848 25.728l0 73.152q0 14.848 10.848 25.728t25.728 10.848l73.152 0q14.848 0 25.728-10.848t10.848-25.728zM1097.152 164.576l0 768q0 37.728-26.848 64.576t-64.576 26.848l-914.272 0q-37.728 0-64.576-26.848t-26.848-64.576l0-768q0-37.728 26.848-64.576t64.576-26.848l914.272 0q37.728 0 64.576 26.848t26.848 64.576z" /></svg>