<?xml version="1.0" standalone="no"?><!DOCTYPE svg PUBLIC "-//W3C//DTD SVG 1.1//EN" "http://www.w3.org/Graphics/SVG/1.1/DTD/svg11.dtd"><svg class="icon" width="200px" height="199.42px" viewBox="0 0 1027 1024" version="1.1" xmlns="http://www.w3.org/2000/svg"><path fill="#333333" d="M22.20032 983.31136V389.04832h225.408V307.08736h245.89824V40.69376h20.49024c13.76768 62.20288 81.96608 20.49024 81.96608 20.49024 66.51904-28.72832 122.95168 0 122.95168 0v163.93216h-20.49024c-20.04992-80.72704-163.93728 0-163.93728 0v81.96608h245.89824v81.96608h225.408v594.25792H22.20032zM227.11808 430.03392H104.1664V512h122.95168V430.03392z m184.4224 0H268.09856V512h143.44192V430.03392z m163.93216 0H452.52608V512h122.95168V430.03392z m184.42752 0h-143.44192V512h143.44192V430.03392z m163.93728 0h-122.95168V512h122.95168V430.03392z m0 122.94656H104.1664v389.3504h61.47584v-327.86944h40.98048v327.86944h61.47584v-327.86944h40.98048v327.86944h81.96608v-327.86944h40.98048v327.86944h61.47584v-327.86944h40.98048v327.86944h61.47584v-327.86944h40.9856v327.86944h81.96608v-327.86944h40.9856v327.86944h61.47584v-327.86944h40.9856v327.86944h61.47584v-389.3504z" /></svg>