<?xml version="1.0" standalone="no"?><!DOCTYPE svg PUBLIC "-//W3C//DTD SVG 1.1//EN" "http://www.w3.org/Graphics/SVG/1.1/DTD/svg11.dtd"><svg class="icon" width="200px" height="160.13px" viewBox="0 0 1279 1024" version="1.1" xmlns="http://www.w3.org/2000/svg"><path fill="#333333" d="M1022.044473 1024H257.878739a34.042553 34.042553 0 0 1-33.018717-28.155495l-92.401215-471.604543a131.051032 131.051032 0 0 1-47.736363-11.774117 138.729803 138.729803 0 0 1-44.280915-31.99488c-12.797952-13.693809-22.652376-29.56327-29.56327-47.224444a156.390977 156.390977 0 0 1 29.435291-162.150056c12.797952-13.693809 27.771557-24.572068 44.408894-31.994881a131.051032 131.051032 0 0 1 109.166534 0c16.637338 7.422812 31.482963 18.301072 44.280915 31.994881 12.797952 13.565829 22.652376 29.43529 29.56327 47.224444a156.390977 156.390977 0 0 1 3.455447 105.327147L441.145417 555.594945l114.797632-288.209887A156.262998 156.262998 0 0 1 511.406175 91.285234c6.910894-17.661174 16.893297-33.530635 29.56327-47.224444 12.797952-13.693809 27.771557-24.444089 44.280915-31.994881a131.051032 131.051032 0 0 1 109.294513 0c16.637338 7.550792 31.482963 18.301072 44.280915 31.994881 12.669973 13.693809 22.652376 29.43529 29.56327 47.224444a156.390977 156.390977 0 0 1-44.408895 175.971845l114.797633 288.337866 169.828827-131.818909a157.798752 157.798752 0 0 1 3.327468-105.455127c7.038874-17.661174 17.021277-33.658615 29.691249-47.352424 12.797952-13.565829 27.643577-24.316109 44.280915-31.994881a131.051032 131.051032 0 0 1 109.166533 0c16.637338 7.678771 31.482963 18.429051 44.280915 31.994881a156.390977 156.390977 0 0 1 0 209.3745c-12.797952 13.821789-27.643577 24.572068-44.280915 32.12286a131.051032 131.051032 0 0 1-47.608382 11.646137l-92.401216 471.860502A34.042553 34.042553 0 0 1 1022.044473 1024z"  /></svg>